<svg width="163" height="18" viewBox="0 0 163 18" fill="none" xmlns="http://www.w3.org/2000/svg">
    <path
        d="M130.42 17.904C128.452 17.904 127.3 17.016 126.46 16.032V17.616H121.9V0.0959997H126.46V6.36C127.348 5.28 128.452 4.344 130.396 4.344C133.492 4.344 136.156 6.912 136.156 11.064V11.112C136.156 15.336 133.492 17.904 130.42 17.904ZM129.028 14.088C130.492 14.088 131.692 12.888 131.692 11.136V11.088C131.692 9.36 130.492 8.136 129.028 8.136C127.54 8.136 126.364 9.36 126.364 11.088V11.136C126.364 12.864 127.54 14.088 129.028 14.088Z"
        fill="white" />
    <path
        d="M111.253 17.904C108.781 17.904 106.909 16.464 106.909 13.896V13.848C106.909 11.136 108.949 9.768 111.997 9.768C113.197 9.768 114.373 9.984 115.117 10.272V10.056C115.117 8.688 114.277 7.92 112.525 7.92C111.157 7.92 110.101 8.208 108.925 8.64L107.989 5.448C109.453 4.848 111.013 4.44 113.245 4.44C115.573 4.44 117.157 4.992 118.189 6.024C119.173 6.984 119.581 8.328 119.581 10.152V17.616H115.093V16.248C114.181 17.232 112.957 17.904 111.253 17.904ZM112.885 15.048C114.229 15.048 115.165 14.208 115.165 12.912V12.312C114.685 12.12 114.037 11.976 113.365 11.976C112.045 11.976 111.277 12.6 111.277 13.584V13.632C111.277 14.52 111.949 15.048 112.885 15.048Z"
        fill="white" />
    <path d="M92.9841 17.616V0.815999H97.6401V13.536H105.776V17.616H92.9841Z" fill="white" />
    <path
        d="M75.125 17.904C72.029 17.904 69.3651 15.336 69.3651 11.184V11.136C69.3651 6.912 72.0291 4.344 75.1011 4.344C77.0691 4.344 78.221 5.232 79.0611 6.216V0.0959997H83.621V17.616H79.0611V15.888C78.1731 16.968 77.069 17.904 75.125 17.904ZM76.493 14.088C77.981 14.088 79.1571 12.864 79.1571 11.136V11.088C79.1571 9.384 77.981 8.136 76.493 8.136C75.029 8.136 73.829 9.36 73.829 11.088V11.136C73.829 12.864 75.029 14.088 76.493 14.088Z"
        fill="white" />
    <path
        d="M59.1979 17.904C56.7259 17.904 54.8539 16.464 54.8539 13.896V13.848C54.8539 11.136 56.8939 9.768 59.9419 9.768C61.1419 9.768 62.3179 9.984 63.0619 10.272V10.056C63.0619 8.688 62.2219 7.92 60.4699 7.92C59.1019 7.92 58.0459 8.208 56.8699 8.64L55.9339 5.448C57.3979 4.848 58.9579 4.44 61.1899 4.44C63.5179 4.44 65.1019 4.992 66.1339 6.024C67.1179 6.984 67.5259 8.328 67.5259 10.152V17.616H63.0379V16.248C62.1259 17.232 60.9019 17.904 59.1979 17.904ZM60.8299 15.048C62.1739 15.048 63.1099 14.208 63.1099 12.912V12.312C62.6299 12.12 61.9819 11.976 61.3099 11.976C59.9899 11.976 59.2219 12.6 59.2219 13.584V13.632C59.2219 14.52 59.8939 15.048 60.8299 15.048Z"
        fill="white" />
    <path
        d="M34.9059 17.616V0.815999H39.8259L43.8339 7.32L47.8419 0.815999H52.7619V17.616H48.1299V7.968L43.8339 14.544H43.7379L39.4659 7.992V17.616H34.9059Z"
        fill="white" />
    <path d="M20.5181 17.616V0.815999H25.1741V17.616H20.5181Z" fill="white" />
    <path
        d="M0 17.616L7.128 0.695999H11.616L18.768 17.616H13.776L12.576 14.592H6.072L4.872 17.616H0ZM7.44 10.968H11.208L9.336 6.216L7.44 10.968Z"
        fill="white" />
    <circle cx="153.156" cy="9" r="9" fill="white" />
</svg>